<mxfile host="app.diagrams.net" modified="2024-07-05T17:27:05.924Z" agent="Mozilla/5.0 (Macintosh; Intel Mac OS X 10_15_7) AppleWebKit/537.36 (KHTML, like Gecko) Chrome/126.0.0.0 Safari/537.36" version="24.6.4" etag="9zv-NMGXcRsERay5c5kH" type="github">
  <diagram name="Page-1" id="Hs2qWFtuzMYOtbWRKsiM">
    <mxGraphModel>
      <root>
        <mxCell id="0" />
        <mxCell id="1" parent="0" />
      </root>
    </mxGraphModel>
  </diagram>
</mxfile>
